# xmcd CD database file
#
# Track frame offsets:
#	150
#	22568
#	47688
#	84767
#	133339
#	206112
#	251255
#
# Disc length: 3867 seconds
#
# Revision: 6
# Processed by: cddbd v1.5.2PL0 Copyright (c) Steve Scherf et al.
# Submitted via: CDex 1.70beta2
#
DISCID=4e0f1907
DTITLE=Chick Corea - Rendezvous In New York (disc1)
DYEAR=2003
DGENRE=Jazz
TTITLE0=Armando's Rhumba
TTITLE1=Blue Monk
TTITLE2=Concierto De Aranjuez - Spain
TTITLE3=Matrix
TTITLE4=Glass Enclosure - Tempus Fugit
TTITLE5=Crystal Silence
TTITLE6=Bessie's Blues
EXTD=YEAR: 2003
EXTT0=
EXTT1=
EXTT2=
EXTT3=
EXTT4=
EXTT5=
EXTT6=
PLAYORDER=
